<svg width="49" height="48" viewBox="0 0 49 48" fill="none" xmlns="http://www.w3.org/2000/svg">
<g clip-path="url(#clip0_495_95)">
<path d="M24.5 35.9946C31.1274 35.9946 36.5 30.622 36.5 23.9946C36.5 17.3672 31.1274 11.9946 24.5 11.9946C17.8726 11.9946 12.5 17.3672 12.5 23.9946C12.5 30.622 17.8726 35.9946 24.5 35.9946Z" fill="white"/>
<path d="M24.5 12H45.2812C43.1754 8.35143 40.1461 5.32154 36.4979 3.21505C32.8496 1.10855 28.7111 -0.00029387 24.4984 5.84198e-08C20.2857 0.000293987 16.1473 1.10972 12.4994 3.21672C8.85149 5.32373 5.8226 8.35403 3.7173 12.0029L14.1079 30L14.1172 29.9976C13.0602 28.1749 12.5024 26.1057 12.5 23.9987C12.4977 21.8917 13.0508 19.8212 14.1037 17.9961C15.1566 16.171 16.6721 14.6558 18.4973 13.6031C20.3225 12.5504 22.393 11.9974 24.5 12Z" fill="url(#paint0_linear_495_95)"/>
<path d="M24.5 33.5C29.7467 33.5 34 29.2467 34 24C34 18.7533 29.7467 14.5 24.5 14.5C19.2533 14.5 15 18.7533 15 24C15 29.2467 19.2533 33.5 24.5 33.5Z" fill="#1A73E8"/>
<path d="M34.8913 30.003L24.5007 48.0001C28.7134 48.0007 32.852 46.8921 36.5003 44.7859C40.1487 42.6796 43.1782 39.65 45.2843 36.0015C47.3904 32.3531 48.4987 28.2145 48.498 24.0018C48.4972 19.7891 47.3874 15.6509 45.28 12.0032H24.4989L24.4964 12.0125C26.6034 12.0084 28.6743 12.5599 30.5003 13.6114C32.3262 14.6628 33.8427 16.1771 34.8968 18.0015C35.9509 19.8259 36.5055 21.8959 36.5045 24.003C36.5035 26.11 35.9471 28.1795 34.8913 30.003Z" fill="url(#paint1_linear_495_95)"/>
<path d="M14.1086 30.0032L3.718 12.0061C1.61112 15.6541 0.501835 19.7925 0.501678 24.0052C0.501521 28.2179 1.6105 32.3564 3.7171 36.0046C5.82371 39.6527 8.85368 42.6819 12.5024 44.7876C16.151 46.8933 20.2898 48.0013 24.5025 48.0001L34.8931 30.003L34.8864 29.9962C33.8364 31.823 32.3233 33.3406 30.4997 34.3962C28.6762 35.4518 26.6066 36.0079 24.4995 36.0086C22.3925 36.0093 20.3225 35.4546 18.4982 34.4002C16.6739 33.3459 15.1599 31.8293 14.1086 30.0032Z" fill="url(#paint2_linear_495_95)"/>
</g>
<defs>
<linearGradient id="paint0_linear_495_95" x1="3.7173" y1="15" x2="45.2812" y2="15" gradientUnits="userSpaceOnUse">
<stop stop-color="#D93025"/>
<stop offset="1" stop-color="#EA4335"/>
</linearGradient>
<linearGradient id="paint1_linear_495_95" x1="21.2219" y1="47.6792" x2="42.0039" y2="11.6838" gradientUnits="userSpaceOnUse">
<stop stop-color="#FCC934"/>
<stop offset="1" stop-color="#FBBC04"/>
</linearGradient>
<linearGradient id="paint2_linear_495_95" x1="27.0981" y1="46.5016" x2="6.3161" y2="10.5061" gradientUnits="userSpaceOnUse">
<stop stop-color="#1E8E3E"/>
<stop offset="1" stop-color="#34A853"/>
</linearGradient>
<clipPath id="clip0_495_95">
<rect width="48" height="48" fill="white" transform="translate(0.5)"/>
</clipPath>
</defs>
</svg>
